<svg width="44" height="44" viewBox="0 0 44 44" fill="none" xmlns="http://www.w3.org/2000/svg">
<path d="M18.0136 18.0598C17.9802 18.4265 17.9736 18.7998 17.9869 19.1665C17.8869 21.7932 18.9869 24.4132 20.9069 26.0865C22.4136 27.3932 24.4269 28.0798 26.4402 28.0798C27.6736 28.0798 28.9136 27.8198 30.0336 27.2865C33.0136 25.8598 34.9336 22.5132 34.7936 19.2732C34.8202 18.6332 34.7736 17.9865 34.6336 17.3598C34.0869 14.8865 32.5069 12.9665 30.1736 11.9532C27.4069 10.7532 24.0269 10.9932 21.3402 12.5798C19.4136 13.7265 18.2269 15.6732 18.0136 18.0598ZM29.6136 26.4198C27.0136 27.6665 23.6869 27.2265 21.5336 25.3598C19.7536 23.8132 18.7469 21.2398 18.9669 18.7998C19.1536 16.7265 20.1669 15.0465 21.8269 14.0598C23.2269 13.2332 24.8402 12.8065 26.4336 12.8065C27.5936 12.8065 28.7402 13.0332 29.7869 13.4865C31.8269 14.3732 33.2136 16.0532 33.6936 18.2198C34.3869 21.3932 32.6002 24.9932 29.6136 26.4198Z" fill="#0077B6"/>
<path d="M40.1604 28.8996C40.7538 28.2729 41.1604 27.3796 40.7804 26.1063C40.6604 25.7063 40.3538 25.3596 40.0604 25.0263C39.8204 24.7596 39.5538 24.4529 39.5204 24.2463C39.4071 23.6396 39.8404 23.0529 40.1071 22.7529C40.2738 22.5729 40.4538 22.3996 40.6404 22.2129C40.9604 21.9063 41.2938 21.5863 41.5671 21.1996C42.1338 20.3863 42.2271 19.3996 41.8138 18.6929C41.4271 18.0329 40.7338 17.7396 40.1204 17.4796C39.5538 17.2396 39.0671 17.0329 38.8804 16.6196C38.6404 16.0796 39.0671 15.4263 39.2604 15.1729C39.3671 15.0329 39.4871 14.8929 39.6071 14.7529C39.9538 14.3463 40.3138 13.9196 40.5071 13.3596C40.7404 12.6863 40.6404 11.9063 40.2471 11.2129C39.8404 10.5063 39.1871 10.0263 38.4671 9.88626C38.0071 9.79959 37.5604 9.83959 37.1271 9.87293C36.5671 9.91959 36.0804 9.95959 35.7004 9.72626C35.3004 9.47959 35.1271 8.95959 35.0938 8.55959C35.0738 8.27293 35.0871 8.03293 35.1071 7.79293C35.1471 7.19959 35.1871 6.58626 34.5338 5.81293C33.8938 5.04626 32.8004 4.35959 31.6804 4.73959C31.2071 4.89959 30.8271 5.22626 30.5004 5.50626C30.1271 5.82626 29.8071 6.09959 29.4404 6.11293C28.8538 6.11959 28.3338 5.53293 27.8471 4.87959C27.2671 4.09959 26.4671 3.21293 25.4004 3.31293C24.7338 3.37293 24.1538 3.80626 23.6338 4.63293C23.5804 4.71959 23.5204 4.81293 23.4671 4.90626C23.2204 5.31959 22.9871 5.70626 22.6471 5.91959C22.2738 6.15293 21.7071 6.17959 21.1338 5.98626C20.8738 5.89959 20.6338 5.75959 20.3871 5.61293C19.8938 5.32626 19.3338 4.99959 18.5804 5.10626C17.5204 5.25959 16.7538 5.82626 16.4871 6.66626C16.3138 7.21959 16.3804 7.76626 16.4471 8.29959C16.4671 8.47293 16.4938 8.65293 16.5004 8.82626C16.5471 9.59293 16.4204 9.95293 16.3471 9.99959C15.6338 9.95959 14.9004 9.91293 14.1671 10.0529C13.2938 10.2129 12.5738 10.6263 12.1338 11.2129C11.5871 11.9463 11.5138 12.9663 11.9604 13.7063C12.0938 13.9263 12.2538 14.0996 12.4071 14.2663C12.5404 14.4129 12.6738 14.5529 12.7538 14.6996C13.0204 15.1729 12.8271 15.8063 12.4938 16.1929C12.3204 16.3929 12.0604 16.5463 11.7871 16.7129C11.4271 16.9263 11.0204 17.1663 10.7404 17.5729C10.3071 18.1996 9.99377 19.2796 10.3138 20.1663C10.5738 20.8863 11.1271 21.3529 11.6604 21.7996C11.9738 22.0596 12.2671 22.3063 12.4871 22.5929C13.1204 23.4063 13.1138 24.6329 12.4938 25.3863C12.1804 25.4863 11.8671 25.6063 11.5538 25.7463C10.5538 26.1929 9.64044 26.7729 8.77377 27.4196C8.50044 26.9996 8.12044 26.6663 7.65377 26.4396C6.9671 26.1063 6.19377 26.0596 5.47377 26.3129L3.54044 26.9929C3.3471 27.0596 3.1671 27.1463 3.00044 27.2529L2.9271 27.2796C1.47377 27.7929 0.693771 29.3929 1.1871 30.8596L4.37377 40.2996C4.62044 41.0263 5.1271 41.6063 5.81377 41.9396C6.2071 42.1329 6.6271 42.2263 7.05377 42.2263C7.37377 42.2263 7.69377 42.1729 8.00044 42.0663L9.93377 41.3863C10.1271 41.3196 10.3004 41.2329 10.4671 41.1263L10.5471 41.0996C11.6604 40.7063 12.3738 39.6729 12.4338 38.5596C12.5938 38.5596 12.7538 38.5596 12.9138 38.5729C14.4138 38.6996 15.8471 39.3929 17.1871 40.0863L17.5338 40.2663C18.8404 40.9529 20.1938 41.6596 21.6871 41.9596C22.2738 42.0796 22.8604 42.1329 23.4471 42.1329C26.1404 42.1329 28.7671 40.9863 31.2604 39.7729C34.9938 37.9596 38.8138 35.8863 40.9138 32.2663C41.6004 31.0796 41.6204 29.9863 40.9604 29.3329C40.7071 29.0929 40.4404 28.9663 40.1604 28.8996ZM13.2338 21.9929C12.9538 21.6329 12.6071 21.3396 12.2738 21.0596C11.8138 20.6729 11.3804 20.3129 11.2138 19.8329C11.0204 19.2929 11.2271 18.5396 11.5271 18.1063C11.6871 17.8729 11.9738 17.7063 12.2738 17.5263C12.5871 17.3396 12.9404 17.1329 13.2204 16.8063C13.8738 16.0463 14.0271 14.9796 13.5938 14.2129C13.4604 13.9729 13.2738 13.7729 13.1204 13.5996C12.9938 13.4596 12.8671 13.3263 12.7871 13.1929C12.5404 12.7929 12.5938 12.1929 12.9071 11.7729C13.2004 11.3796 13.7138 11.0996 14.3471 10.9796C14.9671 10.8663 15.6404 10.9063 16.2938 10.9463C16.5804 10.9596 16.8404 10.8663 17.0338 10.6663C17.3738 10.3263 17.5204 9.67959 17.4604 8.75293C17.4471 8.55959 17.4271 8.36626 17.4004 8.17293C17.3471 7.72626 17.2938 7.29959 17.4071 6.94626C17.6138 6.29293 18.3204 6.09959 18.7204 6.04626C19.1471 5.98626 19.4804 6.18626 19.9071 6.43293C20.1738 6.59293 20.4804 6.77293 20.8338 6.89293C21.6938 7.17959 22.5404 7.12626 23.1671 6.73293C23.7004 6.39959 24.0138 5.86626 24.3004 5.39959C24.3538 5.31293 24.4071 5.22626 24.4538 5.13959C24.8004 4.57959 25.1404 4.29293 25.4938 4.26626C26.0938 4.21293 26.6538 4.87293 27.0871 5.44626C27.7338 6.31293 28.4604 7.11293 29.4871 7.06626C30.1871 7.03959 30.6938 6.60626 31.1338 6.22626C31.4271 5.97293 31.7004 5.73959 32.0004 5.63959C32.6671 5.41293 33.3671 5.89293 33.8071 6.41959C34.2138 6.89959 34.1938 7.17959 34.1538 7.72626C34.1338 7.98626 34.1204 8.27293 34.1471 8.62626C34.2071 9.44626 34.6071 10.1596 35.2004 10.5329C35.8538 10.9396 36.5738 10.8796 37.2138 10.8263C37.6004 10.7929 37.9604 10.7596 38.2871 10.8263C38.7271 10.9129 39.1538 11.2329 39.4138 11.6929C39.6671 12.1329 39.7404 12.6396 39.6004 13.0463C39.4671 13.4329 39.1804 13.7729 38.8738 14.1263C38.7471 14.2796 38.6138 14.4263 38.4938 14.5863C37.8604 15.4129 37.6804 16.2996 38.0004 17.0129C38.3404 17.7729 39.0871 18.0863 39.7404 18.3663C40.2604 18.5863 40.7604 18.7996 40.9804 19.1796C41.2538 19.6529 41.0404 20.2729 40.7738 20.6529C40.5538 20.9663 40.2738 21.2329 39.9738 21.5196C39.7804 21.7063 39.5738 21.8996 39.3871 22.1129C38.7204 22.8529 38.4271 23.6729 38.5671 24.4196C38.6538 24.8863 39.0004 25.2796 39.3338 25.6596C39.5538 25.9063 39.7938 26.1863 39.8538 26.3796C40.2938 27.8529 39.2204 28.5729 38.1871 29.1263C38.0604 29.1929 37.9604 29.2529 37.8804 29.2996C36.6471 29.7796 35.3804 30.2729 34.1138 30.7596C32.9404 31.2129 31.7738 31.6663 30.6338 32.1129C30.4938 31.5929 30.2204 31.1129 29.8471 30.7463C28.8271 29.7529 27.3671 29.5129 26.2138 29.4129C25.9871 29.3929 25.7538 29.3796 25.5204 29.3596C24.5471 29.2929 23.6271 29.2329 22.7938 28.8863C21.9404 28.5329 21.2338 27.9063 20.4871 27.2463C19.8471 26.6796 19.1938 26.0929 18.4138 25.6729C17.0871 24.9529 15.4404 24.7463 13.7404 25.0463C14.0804 24.0596 13.9138 22.8729 13.2338 21.9929ZM8.18044 28.3796L11.3671 37.8196C11.6938 38.7863 11.1738 39.8463 10.2138 40.1863L8.28044 40.8663C7.8071 41.0329 7.29377 41.0063 6.84044 40.7863C6.3871 40.5663 6.0471 40.1796 5.8871 39.6996L2.69377 30.2596C2.3671 29.2929 2.8871 28.2329 3.8471 27.8929L5.78044 27.2129C5.9871 27.1396 6.19377 27.1063 6.4071 27.1063C6.6871 27.1063 6.9671 27.1729 7.2271 27.2996C7.68044 27.5129 8.01377 27.8996 8.18044 28.3796ZM40.0671 31.7729C38.1004 35.1596 34.4204 37.1529 30.8204 38.8996C27.9338 40.2996 24.8671 41.6196 21.8538 41.0063C20.4938 40.7329 19.2004 40.0529 17.9538 39.4063L17.6071 39.2263C16.1804 38.4863 14.6471 37.7463 12.9738 37.6063C12.7404 37.5863 12.5138 37.5863 12.2938 37.5929C12.2871 37.5663 12.2804 37.5396 12.2738 37.5129L9.1671 28.3063C10.0338 27.6463 10.9404 27.0596 11.9338 26.6196C14.0671 25.6729 16.3204 25.6396 17.9538 26.5329C18.6338 26.9063 19.2271 27.4263 19.8471 27.9796C20.6204 28.6663 21.4204 29.3729 22.4204 29.7929C23.4004 30.1996 24.4404 30.2663 25.4538 30.3329C25.6804 30.3463 25.9071 30.3663 26.1271 30.3796C27.1204 30.4663 28.3671 30.6596 29.1738 31.4463C29.5671 31.8263 29.8004 32.4329 29.7804 32.9863C29.7671 33.2663 29.6871 33.6596 29.3471 33.9396C28.9004 34.3063 28.1804 34.3329 27.6071 34.3063C25.6938 34.2329 23.7738 33.7396 22.0538 32.8996C21.8138 32.7796 21.5271 32.8796 21.4138 33.1196C21.2938 33.3596 21.3938 33.6463 21.6338 33.7596C23.4738 34.6663 25.5271 35.1863 27.5738 35.2663C27.6804 35.2729 27.7938 35.2729 27.9071 35.2729C28.5871 35.2729 29.3604 35.1729 29.9604 34.6796C30.4138 34.3063 30.6871 33.7529 30.7338 33.1129C31.9538 32.6396 33.2071 32.1529 34.4604 31.6663C35.8204 31.1396 37.1804 30.6129 38.4938 30.0996C39.3871 29.7529 39.9671 29.7196 40.2604 30.0129C40.6538 30.3863 40.4004 31.1929 40.0671 31.7729Z" fill="#0077B6"/>
<path d="M9.00027 38.4597C10.0003 37.5997 8.64027 36.1797 7.64027 36.9064C6.60027 37.6664 7.99361 39.3197 9.00027 38.4597Z" fill="#0077B6"/>
<path d="M29.8 18.0867H28.04C28.0133 18.0867 27.98 18.0667 27.9733 18.0333L27.4333 16.3667C27.2933 15.9333 26.9133 15.6533 26.4533 15.6533C26 15.6533 25.6133 15.9333 25.4733 16.3667L24.9333 18.0333C24.92 18.0667 24.9 18.0867 24.8667 18.0867H23.1133C22.66 18.0867 22.2733 18.3667 22.1333 18.8C21.9933 19.2333 22.14 19.6867 22.5067 19.9533L23.9267 20.9867C23.9533 21.0067 23.96 21.0333 23.9467 21.0667L23.4067 22.7333C23.2667 23.1667 23.4133 23.62 23.78 23.8867C23.9667 24.02 24.1733 24.0867 24.3867 24.0867C24.6 24.0867 24.8067 24.02 24.9933 23.8867L26.4133 22.8533C26.44 22.8333 26.4733 22.8333 26.5 22.8533L27.92 23.8867C28.2867 24.1533 28.7667 24.1533 29.1333 23.8867C29.5 23.62 29.6467 23.1667 29.5067 22.7333L28.9667 21.0667C28.96 21.04 28.9667 21.0067 28.9933 20.9867L30.4133 19.9533C30.78 19.6867 30.9267 19.2333 30.7867 18.8C30.64 18.3667 30.2533 18.0867 29.8 18.0867Z" fill="#0077B6"/>
<path d="M36.5276 8.83321C36.6142 8.83321 36.7076 8.80654 36.7876 8.75988C37.8209 8.09988 38.7476 7.29321 39.5476 6.35988C39.7209 6.15988 39.6942 5.85321 39.4942 5.67988C39.2942 5.50654 38.9876 5.53321 38.8142 5.73321C38.0809 6.59321 37.2209 7.33988 36.2676 7.94654C36.0409 8.08654 35.9809 8.38654 36.1209 8.60654C36.2142 8.75321 36.3676 8.83321 36.5276 8.83321Z" fill="#0077B6"/>
<path d="M29.4273 4.92649H29.454C29.7206 4.91316 29.9206 4.68649 29.9073 4.42649L29.8006 2.23983C29.7873 1.97316 29.5673 1.76649 29.3006 1.78649C29.034 1.79983 28.834 2.02649 28.8473 2.28649L28.954 4.47316C28.9606 4.72649 29.174 4.92649 29.4273 4.92649Z" fill="#0077B6"/>
<path d="M21.3009 4.91299C21.3675 5.11299 21.5542 5.24633 21.7609 5.24633C21.8075 5.24633 21.8609 5.23966 21.9075 5.21966C22.1609 5.13966 22.3009 4.86633 22.2142 4.61299L21.6275 2.79966C21.5475 2.54633 21.2742 2.40633 21.0209 2.49299C20.7675 2.57299 20.6275 2.84633 20.7142 3.09966L21.3009 4.91299Z" fill="#0077B6"/>
<path d="M14.5741 9.01994C14.6675 9.09994 14.7741 9.13327 14.8875 9.13327C15.0208 9.13327 15.1541 9.07994 15.2541 8.9666C15.4275 8.7666 15.4075 8.45994 15.2075 8.2866L11.9675 5.49327C11.7675 5.31994 11.4608 5.33994 11.2875 5.53994C11.1075 5.7466 11.1341 6.05327 11.3341 6.2266L14.5741 9.01994Z" fill="#0077B6"/>
<path d="M6.247 15.7866H6.28034L11.2337 15.4399C11.5003 15.4199 11.7003 15.1932 11.6803 14.9266C11.6603 14.6599 11.427 14.4599 11.167 14.4799L6.21367 14.8266C5.947 14.8466 5.747 15.0732 5.767 15.3399C5.787 15.5932 5.99367 15.7866 6.247 15.7866Z" fill="#0077B6"/>
<path d="M9.5802 23.813C9.65353 23.9997 9.83353 24.113 10.0269 24.113C10.0869 24.113 10.1469 24.0997 10.2069 24.0797L11.0069 23.7597C11.2535 23.6597 11.3735 23.3797 11.2735 23.133C11.1735 22.8863 10.8935 22.7663 10.6469 22.8663L9.84686 23.1863C9.6002 23.2863 9.4802 23.5663 9.5802 23.813Z" fill="#0077B6"/>
<path d="M42.9606 15.353C42.9006 15.093 42.6473 14.933 42.3873 14.9863L39.9873 15.5196C39.7273 15.5796 39.5673 15.833 39.6206 16.093C39.6673 16.3196 39.8673 16.4663 40.0873 16.4663C40.1206 16.4663 40.1539 16.4596 40.1939 16.453L42.5939 15.9196C42.8539 15.8663 43.0206 15.613 42.9606 15.353Z" fill="#0077B6"/>
<path d="M42.3742 24.12L40.8276 23.8C40.5676 23.7466 40.3142 23.9133 40.2609 24.1733C40.2076 24.4333 40.3742 24.6866 40.6342 24.74L42.1809 25.06C42.2142 25.0666 42.2476 25.0733 42.2809 25.0733C42.5009 25.0733 42.7009 24.92 42.7476 24.6933C42.8009 24.4333 42.6342 24.1733 42.3742 24.12Z" fill="#0077B6"/>
<path d="M16.4866 14.7865C16.5333 14.8065 16.58 14.8132 16.6333 14.8132C16.7933 14.8132 16.9466 14.7132 17.0066 14.5598C17.9666 12.0798 20.3866 10.1932 23.0266 9.85982C23.2466 9.83315 23.4 9.63315 23.3733 9.41315C23.3466 9.19315 23.14 9.03982 22.9266 9.06649C20.0066 9.43315 17.3266 11.5265 16.26 14.2732C16.18 14.4732 16.28 14.7065 16.4866 14.7865Z" fill="#0077B6"/>
<path d="M25.4267 9.51338C25.4601 9.51338 25.4934 9.50671 25.5267 9.50005L25.7267 9.45338C25.9401 9.40005 26.0734 9.18005 26.0201 8.96671C25.9667 8.75338 25.7467 8.62005 25.5334 8.67338L25.3334 8.72671C25.1201 8.78005 24.9867 9.00005 25.0401 9.21338C25.0801 9.39338 25.2467 9.51338 25.4267 9.51338Z" fill="#0077B6"/>
</svg>
